<svg width="1280" height="800" viewBox="0 0 1280 800" xmlns="http://www.w3.org/2000/svg">
  <defs>
    <linearGradient id="paper" x1="0" y1="0" x2="1" y2="1"><stop stop-color="#FBF7EF"/><stop offset="1" stop-color="#E9E1D3"/></linearGradient>
    <linearGradient id="brand" x1="0" y1="0" x2="1" y2="1"><stop stop-color="#18A7A0"/><stop offset=".58" stop-color="#0C6E6E"/><stop offset="1" stop-color="#083F44"/></linearGradient>
    <filter id="soft"><feDropShadow dx="0" dy="18" stdDeviation="22" flood-color="#26221B" flood-opacity=".14"/></filter>
  </defs>
  <rect width="1280" height="800" fill="url(#paper)"/>
  <g transform="translate(76 72)">
    <g transform="translate(0 0) scale(0.1015625)">
    <rect x="56" y="56" width="400" height="400" rx="104" fill="url(#brand)"/>
    <path d="M128 178H294L252 136H322L404 218L322 300H252L294 258H128V178Z" fill="#FFFDF8"/>
    <path d="M384 334H218L260 376H190L108 294L190 212H260L218 254H384V334Z" fill="#FFFDF8" fill-opacity=".62"/>
  </g>
    <text x="70" y="28" font-family="Avenir Next, Arial, sans-serif" font-size="24" font-weight="700" fill="#242019">Relay</text>
    <text x="70" y="54" font-family="Avenir Next, Arial, sans-serif" font-size="15" fill="#6F6659">Private bookmark sync</text>
    <text x="0" y="136" font-family="Avenir Next, Arial, sans-serif" font-size="46" font-weight="700" fill="#242019">Sync that feels invisible.</text>
    <text x="0" y="178" font-family="Avenir Next, Arial, sans-serif" font-size="22" fill="#6F6659">Encrypted vault sync, Pro status, and update controls.</text>
  </g>
  <g transform="translate(820 132)" filter="url(#soft)">
    <rect width="360" height="560" rx="22" fill="#FFFDF8" stroke="#D8CFC0"/>
    
      <rect x="0" y="0" width="360" height="560" rx="22" fill="#FBF7EF"/>
      <circle cx="68" cy="94" r="112" fill="#E9F4F1" opacity=".74"/>
      <circle cx="304" cy="36" r="88" fill="#F6E7D5" opacity=".55"/>
      <g transform="translate(18 18) scale(0.07421875)">
    <rect x="56" y="56" width="400" height="400" rx="104" fill="url(#brand)"/>
    <path d="M128 178H294L252 136H322L404 218L322 300H252L294 258H128V178Z" fill="#FFFDF8"/>
    <path d="M384 334H218L260 376H190L108 294L190 212H260L218 254H384V334Z" fill="#FFFDF8" fill-opacity=".62"/>
  </g>
      <text x="70" y="43" font-family="Avenir Next, Arial" font-size="17" font-weight="800" fill="#242019">Relay</text>
      <rect x="251" y="22" width="76" height="28" rx="14" fill="#E9F4F1"/>
      <text x="289" y="41" text-anchor="middle" font-family="Avenir Next, Arial" font-size="12" font-weight="800" fill="#0C6E6E">PRO</text>
      <rect x="20" y="74" width="320" height="88" rx="16" fill="#0C6E6E"/>
      <text x="44" y="108" font-family="Avenir Next, Arial" font-size="18" font-weight="800" fill="#FFFDF8">Relay Pro</text>
      <text x="44" y="132" font-family="Avenir Next, Arial" font-size="12.5" fill="#D4F3EF">Unlimited bookmarks · auto-sync · restore history</text>
      <text x="301" y="124" text-anchor="middle" font-family="Avenir Next, Arial" font-size="18" font-weight="800" fill="#FFFDF8">→</text>
      <rect x="20" y="178" width="320" height="210" rx="24" fill="#FFFDF8" stroke="#DDD2C4"/>
      <circle cx="180" cy="250" r="56" fill="#E9F4F1"/>
      <circle cx="180" cy="250" r="40" fill="#0C6E6E"/>
      <path d="M159 244h34l-11-11h19l23 23-23 23h-19l11-11h-34z" fill="#FFFDF8"/>
      <text x="180" y="332" text-anchor="middle" font-family="Avenir Next, Arial" font-size="24" font-weight="850" fill="#242019">Sync</text>
      <text x="180" y="357" text-anchor="middle" font-family="Avenir Next, Arial" font-size="14" fill="#6F6659">Encrypt and update your vault.</text>
      <rect x="44" y="404" width="126" height="56" rx="14" fill="#F7F4EE" stroke="#E4D8C9"/>
      <text x="107" y="428" text-anchor="middle" font-family="Avenir Next, Arial" font-size="18" font-weight="850" fill="#242019">1,248</text>
      <text x="107" y="449" text-anchor="middle" font-family="Avenir Next, Arial" font-size="11" fill="#8B8173">Bookmarks</text>
      <rect x="190" y="404" width="126" height="56" rx="14" fill="#F7F4EE" stroke="#E4D8C9"/>
      <text x="253" y="428" text-anchor="middle" font-family="Avenir Next, Arial" font-size="18" font-weight="850" fill="#242019">now</text>
      <text x="253" y="449" text-anchor="middle" font-family="Avenir Next, Arial" font-size="11" fill="#8B8173">Last sync</text>
      <rect x="20" y="478" width="320" height="58" rx="16" fill="#FFFDF8" stroke="#DDD2C4"/>
      <text x="54" y="503" font-family="Avenir Next, Arial" font-size="14" font-weight="800" fill="#242019">Auto-sync</text>
      <text x="54" y="523" font-family="Avenir Next, Arial" font-size="11.5" fill="#6F6659">Syncs on every change</text>
      <rect x="284" y="495" width="36" height="22" rx="11" fill="#0C6E6E"/>
      <circle cx="309" cy="506" r="9" fill="#FFFDF8"/>
    
  </g>
</svg>