<svg width="1280" height="800" viewBox="0 0 1280 800" xmlns="http://www.w3.org/2000/svg">
  <defs>
    <linearGradient id="paper" x1="0" y1="0" x2="1" y2="1"><stop stop-color="#FBF7EF"/><stop offset="1" stop-color="#E9E1D3"/></linearGradient>
    <linearGradient id="brand" x1="0" y1="0" x2="1" y2="1"><stop stop-color="#18A7A0"/><stop offset=".58" stop-color="#0C6E6E"/><stop offset="1" stop-color="#083F44"/></linearGradient>
    <filter id="soft"><feDropShadow dx="0" dy="18" stdDeviation="22" flood-color="#26221B" flood-opacity=".14"/></filter>
  </defs>
  <rect width="1280" height="800" fill="url(#paper)"/>
  <g transform="translate(76 72)">
    <g transform="translate(0 0) scale(0.1015625)">
    <rect x="56" y="56" width="400" height="400" rx="104" fill="url(#brand)"/>
    <path d="M128 178H294L252 136H322L404 218L322 300H252L294 258H128V178Z" fill="#FFFDF8"/>
    <path d="M384 334H218L260 376H190L108 294L190 212H260L218 254H384V334Z" fill="#FFFDF8" fill-opacity=".62"/>
  </g>
    <text x="70" y="28" font-family="Avenir Next, Arial, sans-serif" font-size="24" font-weight="700" fill="#242019">Relay</text>
    <text x="70" y="54" font-family="Avenir Next, Arial, sans-serif" font-size="15" fill="#6F6659">Private bookmark sync</text>
    <text x="0" y="136" font-family="Avenir Next, Arial, sans-serif" font-size="46" font-weight="700" fill="#242019">No email. No readable vault.</text>
    <text x="0" y="178" font-family="Avenir Next, Arial, sans-serif" font-size="22" fill="#6F6659">The sign-in flow is simple: username, password, encrypted sync.</text>
  </g>
  <g transform="translate(820 132)" filter="url(#soft)">
    <rect width="360" height="560" rx="22" fill="#FFFDF8" stroke="#D8CFC0"/>
    
      <rect x="0" y="0" width="360" height="560" rx="22" fill="#FBF7EF"/>
      <circle cx="68" cy="74" r="106" fill="#E9F4F1" opacity=".72"/>
      <circle cx="304" cy="34" r="86" fill="#F6E7D5" opacity=".52"/>
      <g transform="translate(126 76)">
        <rect width="108" height="108" rx="26" fill="#FFFDF8" stroke="#DDD2C4"/>
        <path d="M54 88s42-22 42-62V18L54 2 12 18v8c0 40 42 62 42 62z" fill="none" stroke="#0C6E6E" stroke-width="7"/>
      </g>
      <text x="180" y="234" text-anchor="middle" font-family="Avenir Next, Arial" font-size="26" font-weight="850" fill="#242019">Bookmarks, in sync.</text>
      <text x="180" y="262" text-anchor="middle" font-family="Avenir Next, Arial" font-size="14" fill="#6F6659">Sign in to access your encrypted vault.</text>
      <rect x="24" y="306" width="312" height="54" rx="14" fill="#FFFDF8" stroke="#D8CFC0"/>
      <text x="42" y="338" font-family="Avenir Next, Arial" font-size="16" fill="#8B8173">relay-vault</text>
      <rect x="24" y="374" width="312" height="54" rx="14" fill="#FFFDF8" stroke="#D8CFC0"/>
      <text x="42" y="406" font-family="Avenir Next, Arial" font-size="16" fill="#8B8173">••••••••••••</text>
      <rect x="24" y="444" width="312" height="54" rx="14" fill="url(#brand)"/>
      <text x="180" y="478" text-anchor="middle" font-family="Avenir Next, Arial" font-size="16" font-weight="800" fill="#FFFDF8">Sign In</text>
      <text x="180" y="526" text-anchor="middle" font-family="Avenir Next, Arial" font-size="12" fill="#8B8173">No reset email. Your password is the key.</text>
    
  </g>
</svg>