<svg width="1280" height="800" viewBox="0 0 1280 800" xmlns="http://www.w3.org/2000/svg">
  <defs>
    <linearGradient id="paper" x1="0" y1="0" x2="1" y2="1"><stop stop-color="#FBF7EF"/><stop offset="1" stop-color="#E9E1D3"/></linearGradient>
    <linearGradient id="brand" x1="0" y1="0" x2="1" y2="1"><stop stop-color="#18A7A0"/><stop offset=".58" stop-color="#0C6E6E"/><stop offset="1" stop-color="#083F44"/></linearGradient>
    <filter id="soft"><feDropShadow dx="0" dy="18" stdDeviation="22" flood-color="#26221B" flood-opacity=".14"/></filter>
  </defs>
  <rect width="1280" height="800" fill="url(#paper)"/>
  <g transform="translate(76 72)">
    <g transform="translate(0 0) scale(0.1015625)">
    <rect x="56" y="56" width="400" height="400" rx="104" fill="url(#brand)"/>
    <path d="M128 178H294L252 136H322L404 218L322 300H252L294 258H128V178Z" fill="#FFFDF8"/>
    <path d="M384 334H218L260 376H190L108 294L190 212H260L218 254H384V334Z" fill="#FFFDF8" fill-opacity=".62"/>
  </g>
    <text x="70" y="28" font-family="Avenir Next, Arial, sans-serif" font-size="24" font-weight="700" fill="#242019">Relay</text>
    <text x="70" y="54" font-family="Avenir Next, Arial, sans-serif" font-size="15" fill="#6F6659">Private bookmark sync</text>
    <text x="0" y="136" font-family="Avenir Next, Arial, sans-serif" font-size="46" font-weight="700" fill="#242019">Restore without fear.</text>
    <text x="0" y="178" font-family="Avenir Next, Arial, sans-serif" font-size="22" fill="#6F6659">Pro history brings missing bookmarks back while current bookmarks stay.</text>
  </g>
  <g transform="translate(820 132)" filter="url(#soft)">
    <rect width="360" height="560" rx="22" fill="#FFFDF8" stroke="#D8CFC0"/>
    
      <rect x="0" y="0" width="360" height="560" rx="22" fill="#FBF7EF"/>
      <text x="24" y="42" font-family="Avenir Next, Arial" font-size="18" font-weight="850" fill="#242019">Sync History</text>
      <text x="24" y="78" font-family="Avenir Next, Arial" font-size="12" font-weight="800" fill="#8B8173">LAST 30 DAYS</text>
      <rect x="24" y="100" width="312" height="58" rx="9" fill="#FFFDF8" stroke="#D8CFC0"/>
  <circle cx="54" cy="129" r="15" fill="#E9F4F1"/>
  <text x="80" y="125" font-family="Avenir Next, Arial" font-size="15" font-weight="700" fill="#242019">Today, 9:41 AM</text>
  <text x="80" y="145" font-family="Avenir Next, Arial" font-size="12" fill="#6F6659">1,248 bookmarks · just now</text>
      <rect x="24" y="174" width="312" height="58" rx="9" fill="#FFFDF8" stroke="#D8CFC0"/>
  <circle cx="54" cy="203" r="15" fill="#E9F4F1"/>
  <text x="80" y="199" font-family="Avenir Next, Arial" font-size="15" font-weight="700" fill="#242019">Yesterday, 8:18 PM</text>
  <text x="80" y="219" font-family="Avenir Next, Arial" font-size="12" fill="#6F6659">1,241 bookmarks · 13h ago</text>
      <rect x="24" y="248" width="312" height="58" rx="9" fill="#FFFDF8" stroke="#D8CFC0"/>
  <circle cx="54" cy="277" r="15" fill="#E9F4F1"/>
  <text x="80" y="273" font-family="Avenir Next, Arial" font-size="15" font-weight="700" fill="#242019">Apr 26, 10:04 AM</text>
  <text x="80" y="293" font-family="Avenir Next, Arial" font-size="12" fill="#6F6659">1,230 bookmarks · 2d ago</text>
      <rect x="24" y="322" width="312" height="58" rx="9" fill="#FFFDF8" stroke="#D8CFC0"/>
  <circle cx="54" cy="351" r="15" fill="#E9F4F1"/>
  <text x="80" y="347" font-family="Avenir Next, Arial" font-size="15" font-weight="700" fill="#242019">Apr 24, 7:45 PM</text>
  <text x="80" y="367" font-family="Avenir Next, Arial" font-size="12" fill="#6F6659">1,210 bookmarks · 4d ago</text>
      <rect x="24" y="424" width="312" height="82" rx="16" fill="#E9F4F1" stroke="#BFDCD5"/>
      <text x="48" y="456" font-family="Avenir Next, Arial" font-size="16" font-weight="850" fill="#0C6E6E">Additive restore</text>
      <text x="48" y="482" font-family="Avenir Next, Arial" font-size="13" fill="#2D6F6A">Missing bookmarks come back.</text>
      <text x="48" y="502" font-family="Avenir Next, Arial" font-size="13" fill="#2D6F6A">Current bookmarks stay.</text>
    
  </g>
</svg>