<svg width="1280" height="800" viewBox="0 0 1280 800" xmlns="http://www.w3.org/2000/svg">
  <defs>
    <linearGradient id="paper" x1="0" y1="0" x2="1" y2="1"><stop stop-color="#FBF7EF"/><stop offset="1" stop-color="#E9E1D3"/></linearGradient>
    <linearGradient id="brand" x1="0" y1="0" x2="1" y2="1"><stop stop-color="#18A7A0"/><stop offset=".58" stop-color="#0C6E6E"/><stop offset="1" stop-color="#083F44"/></linearGradient>
    <filter id="soft"><feDropShadow dx="0" dy="18" stdDeviation="22" flood-color="#26221B" flood-opacity=".14"/></filter>
  </defs>
  <rect width="1280" height="800" fill="url(#paper)"/>
  <g transform="translate(76 72)">
    <g transform="translate(0 0) scale(0.1015625)">
    <rect x="56" y="56" width="400" height="400" rx="104" fill="url(#brand)"/>
    <path d="M128 178H294L252 136H322L404 218L322 300H252L294 258H128V178Z" fill="#FFFDF8"/>
    <path d="M384 334H218L260 376H190L108 294L190 212H260L218 254H384V334Z" fill="#FFFDF8" fill-opacity=".62"/>
  </g>
    <text x="70" y="28" font-family="Avenir Next, Arial, sans-serif" font-size="24" font-weight="700" fill="#242019">Relay</text>
    <text x="70" y="54" font-family="Avenir Next, Arial, sans-serif" font-size="15" fill="#6F6659">Private bookmark sync</text>
    <text x="0" y="136" font-family="Avenir Next, Arial, sans-serif" font-size="46" font-weight="700" fill="#242019">Everything in reach.</text>
    <text x="0" y="178" font-family="Avenir Next, Arial, sans-serif" font-size="22" fill="#6F6659">Updates, privacy, restore, and Pro settings in one clean panel.</text>
  </g>
  <g transform="translate(820 132)" filter="url(#soft)">
    <rect width="360" height="560" rx="22" fill="#FFFDF8" stroke="#D8CFC0"/>
    
      <rect x="0" y="0" width="360" height="560" rx="22" fill="#FBF7EF"/>
      <text x="24" y="42" font-family="Avenir Next, Arial" font-size="18" font-weight="850" fill="#242019">Settings</text>
      <rect x="24" y="70" width="312" height="70" rx="15" fill="#0C6E6E"/>
      <text x="48" y="101" font-family="Avenir Next, Arial" font-size="16" font-weight="850" fill="#FFFDF8">Relay Pro</text>
      <text x="48" y="123" font-family="Avenir Next, Arial" font-size="12" fill="#D4F3EF">Unlimited bookmarks, auto-sync, history.</text>
      <rect x="24" y="158" width="312" height="106" rx="15" fill="#FFFDF8" stroke="#D8CFC0"/>
      <text x="48" y="190" font-family="Avenir Next, Arial" font-size="16" font-weight="850" fill="#242019">Relay is up to date</text>
      <text x="48" y="216" font-family="Avenir Next, Arial" font-size="13" fill="#6F6659">Installed: v1.0.0</text>
      <rect x="48" y="230" width="88" height="30" rx="9" fill="#E9F4F1"/>
      <text x="92" y="250" text-anchor="middle" font-family="Avenir Next, Arial" font-size="13" font-weight="800" fill="#0C6E6E">Check</text>
      <rect x="24" y="282" width="312" height="68" rx="15" fill="#FFFDF8" stroke="#D8CFC0"/>
      <text x="48" y="311" font-family="Avenir Next, Arial" font-size="15" font-weight="850" fill="#242019">Sync History</text>
      <text x="48" y="332" font-family="Avenir Next, Arial" font-size="12" fill="#6F6659">Restore missing bookmarks · Pro</text>
      <rect x="24" y="368" width="312" height="68" rx="15" fill="#FFFDF8" stroke="#D8CFC0"/>
      <text x="48" y="397" font-family="Avenir Next, Arial" font-size="15" font-weight="850" fill="#242019">No email. No tracking.</text>
      <text x="48" y="418" font-family="Avenir Next, Arial" font-size="12" fill="#6F6659">Relay keeps account data minimal.</text>
      <rect x="24" y="456" width="312" height="48" rx="13" fill="#F8E9E5" stroke="#E5BFB8"/>
      <text x="180" y="486" text-anchor="middle" font-family="Avenir Next, Arial" font-size="14" font-weight="850" fill="#B63D35">Delete account &amp; vault</text>
    
  </g>
</svg>