<svg width="440" height="280" viewBox="0 0 440 280" xmlns="http://www.w3.org/2000/svg">
    <defs><linearGradient id="brand" x1="0" y1="0" x2="1" y2="1"><stop stop-color="#18A7A0"/><stop offset=".58" stop-color="#0C6E6E"/><stop offset="1" stop-color="#083F44"/></linearGradient></defs>
    <rect width="440" height="280" fill="#FBF7EF"/>
    <g transform="translate(34 42) scale(0.13671875)">
    <rect x="56" y="56" width="400" height="400" rx="104" fill="url(#brand)"/>
    <path d="M128 178H294L252 136H322L404 218L322 300H252L294 258H128V178Z" fill="#FFFDF8"/>
    <path d="M384 334H218L260 376H190L108 294L190 212H260L218 254H384V334Z" fill="#FFFDF8" fill-opacity=".62"/>
  </g>
    <text x="34" y="154" font-family="Avenir Next, Arial" font-size="38" font-weight="850" fill="#242019">Relay</text>
    <text x="34" y="188" font-family="Avenir Next, Arial" font-size="18" fill="#6F6659">Private bookmark sync</text>
    <text x="34" y="220" font-family="Avenir Next, Arial" font-size="15" fill="#0C6E6E">No email. No tracking.</text>
    <rect x="280" y="48" width="116" height="168" rx="18" fill="#FFFDF8" stroke="#D8CFC0"/>
    <circle cx="338" cy="104" r="28" fill="#E9F4F1"/>
    <path d="M324 100h22l-7-7h13l15 15-15 15h-13l7-7h-22z" fill="#0C6E6E"/>
    <text x="338" y="154" text-anchor="middle" font-family="Avenir Next, Arial" font-size="17" font-weight="850" fill="#242019">Sync</text>
    <text x="338" y="178" text-anchor="middle" font-family="Avenir Next, Arial" font-size="11" fill="#6F6659">Encrypted</text>
  </svg>